<?xml version="1.0" standalone="no"?>
<!DOCTYPE svg PUBLIC "-//W3C//DTD SVG 20010904//EN"
 "http://www.w3.org/TR/2001/REC-SVG-20010904/DTD/svg10.dtd">
<svg version="1.0" xmlns="http://www.w3.org/2000/svg"
 width="200.000000pt" height="200.000000pt" viewBox="0 0 200.000000 200.000000"
 preserveAspectRatio="xMidYMid meet">

<g transform="translate(0.000000,200.000000) scale(0.100000,-0.100000)"
fill="#000000" stroke="none">
<path d="M0 1000 l0 -1000 1000 0 1000 0 0 1000 0 1000 -1000 0 -1000 0 0
-1000z m1105 166 c51 -40 75 -82 75 -136 -1 -44 -1 -44 -15 -20 -8 14 -14 36
-15 49 0 14 -17 41 -44 67 -42 43 -45 44 -106 44 -61 0 -64 -1 -106 -44 -27
-26 -44 -53 -44 -67 -1 -13 -7 -35 -15 -49 -14 -25 -14 -24 -15 18 0 67 35
119 105 157 47 25 134 16 180 -19z m-234 -236 c17 0 19 -8 19 -65 0 -58 -2
-65 -20 -65 -11 0 -20 6 -20 14 0 8 -7 16 -15 20 -17 6 -21 56 -5 56 6 0 10
15 11 33 0 17 3 26 6 20 2 -7 13 -13 24 -13z m300 -40 c15 0 10 -50 -6 -56 -8
-4 -15 -12 -15 -20 0 -8 -9 -14 -20 -14 -18 0 -20 7 -20 65 0 58 2 65 20 65
11 0 21 6 22 13 0 6 3 -3 5 -20 2 -18 8 -33 14 -33z"/>
</g>
</svg>
