<?xml version="1.0" standalone="no"?>
<!DOCTYPE svg PUBLIC "-//W3C//DTD SVG 20010904//EN"
 "http://www.w3.org/TR/2001/REC-SVG-20010904/DTD/svg10.dtd">
<svg version="1.0" xmlns="http://www.w3.org/2000/svg"
 width="200.000000pt" height="200.000000pt" viewBox="0 0 200.000000 200.000000"
 preserveAspectRatio="xMidYMid meet">

<g transform="translate(0.000000,200.000000) scale(0.100000,-0.100000)"
fill="#000000" stroke="none">
<path d="M0 1000 l0 -1000 1000 0 1000 0 0 1000 0 1000 -1000 0 -1000 0 0
-1000z m701 191 c21 -21 41 -36 44 -33 7 8 4 -48 -4 -78 -7 -23 -8 -22 -15 15
-18 91 -54 121 -144 116 -31 -1 -92 -62 -92 -92 0 -48 -18 -53 -21 -6 -2 25
-2 45 1 44 3 -1 21 15 42 36 33 34 40 37 93 37 53 0 60 -3 96 -39z m679 24 c0
-8 -9 -15 -20 -15 -11 0 -20 7 -20 15 0 8 9 15 20 15 11 0 20 -7 20 -15z m80
0 c0 -8 -9 -15 -20 -15 -11 0 -20 7 -20 15 0 8 9 15 20 15 11 0 20 -7 20 -15z
m-380 -74 c5 -11 10 -47 10 -80 0 -54 -2 -61 -20 -61 -18 0 -20 7 -20 60 0 57
-1 60 -25 60 -24 0 -25 -3 -25 -60 0 -53 -2 -60 -20 -60 -18 0 -20 7 -20 60
l0 60 -30 0 -30 0 0 -60 c0 -57 -1 -60 -25 -60 -24 0 -25 2 -25 73 0 41 3 77
7 80 3 4 53 7 109 7 92 0 104 -2 114 -19z m80 -29 c0 -58 12 -72 62 -72 l38 0
0 60 c0 57 1 60 25 60 24 0 25 -2 25 -64 0 -94 -2 -96 -75 -96 -87 0 -107 17
-113 99 -4 57 -3 61 17 61 18 0 21 -6 21 -48z m220 -57 c0 -119 -4 -125 -84
-125 -39 0 -46 3 -46 20 0 17 7 20 45 20 l45 0 0 95 c0 88 1 95 20 95 19 0 20
-7 20 -105z m80 25 c0 -73 -2 -80 -20 -80 -18 0 -20 7 -20 80 0 73 2 80 20 80
18 0 20 -7 20 -80z m105 60 l22 -20 18 20 c11 12 31 20 49 20 l30 0 -34 -35
c-36 -37 -37 -36 19 -97 l25 -28 -24 0 c-13 0 -37 12 -52 27 l-28 27 -28 -27
c-17 -17 -39 -27 -57 -27 l-29 0 42 43 42 43 -31 37 c-30 36 -30 37 -8 37 13
0 32 -9 44 -20z m-836 -187 c-22 -40 -39 -28 -39 27 0 38 4 50 15 50 8 0 15 6
16 13 1 6 5 -6 10 -28 7 -28 6 -47 -2 -62z m-209 27 c0 -56 -17 -67 -40 -25
-11 21 -11 29 0 50 23 42 40 31 40 -25z m370 -120 c0 -6 -101 -9 -287 -8
l-288 3 280 5 c154 3 283 6 288 8 4 1 7 -2 7 -8z"/>
</g>
</svg>
