<?xml version="1.0" standalone="no"?>
<!DOCTYPE svg PUBLIC "-//W3C//DTD SVG 20010904//EN"
 "http://www.w3.org/TR/2001/REC-SVG-20010904/DTD/svg10.dtd">
<svg version="1.0" xmlns="http://www.w3.org/2000/svg"
 width="200.000000pt" height="200.000000pt" viewBox="0 0 200.000000 200.000000"
 preserveAspectRatio="xMidYMid meet">

<g transform="translate(0.000000,200.000000) scale(0.100000,-0.100000)"
fill="#000000" stroke="none">
<path d="M0 1000 l0 -1000 1000 0 1000 0 0 1000 0 1000 -1000 0 -1000 0 0
-1000z m1114 790 c67 -25 135 -84 166 -144 l24 -45 12 27 c19 46 5 -122 -17
-206 -24 -92 -24 -127 1 -159 28 -36 25 -67 -10 -96 -16 -14 -30 -35 -30 -47
0 -18 -5 -21 -32 -18 -31 3 -33 6 -36 46 -3 38 -5 42 -31 42 -15 0 -32 5 -39
12 -9 9 -15 9 -24 0 -7 -7 -29 -12 -49 -12 -31 0 -40 5 -63 40 -14 22 -33 40
-40 40 -8 0 -29 -18 -46 -40 -24 -30 -39 -40 -60 -40 -27 0 -29 -3 -32 -42 -3
-40 -5 -43 -35 -46 -28 -3 -33 0 -33 18 0 12 -14 33 -30 47 -35 29 -38 60 -10
96 25 31 25 67 1 159 -23 86 -36 250 -17 206 l12 -27 24 45 c71 135 246 199
394 144z m6 -720 c0 -13 -7 -20 -20 -20 -13 0 -20 7 -20 20 0 13 7 20 20 20
13 0 20 -7 20 -20z m80 0 c0 -13 -7 -20 -20 -20 -13 0 -20 7 -20 20 0 13 7 20
20 20 13 0 20 -7 20 -20z m-389 -71 c27 -27 24 -142 -3 -147 -14 -3 -17 7 -20
60 -3 56 -5 63 -25 66 -20 3 -22 -1 -25 -60 -2 -50 -7 -63 -20 -66 -14 -3 -17
7 -20 60 l-3 63 -32 3 -33 3 0 -65 c0 -59 -2 -66 -20 -66 -18 0 -20 7 -20 78
0 43 3 81 6 85 4 3 49 6 101 6 80 -1 98 -4 114 -20z m89 -34 c0 -61 13 -75 69
-75 l31 0 0 65 c0 58 2 65 20 65 18 0 20 -7 20 -79 0 -87 -3 -91 -64 -91 -46
0 -95 19 -106 40 -6 10 -10 44 -10 74 0 49 2 56 20 56 18 0 20 -7 20 -55z
m220 -43 c0 -121 -8 -135 -76 -136 -38 -1 -49 3 -52 16 -3 13 6 17 40 20 l43
3 3 98 c2 89 4 97 22 97 19 0 20 -7 20 -98z m78 16 c-3 -70 -6 -83 -20 -86
-16 -3 -18 6 -18 82 0 80 1 86 20 86 20 0 21 -5 18 -82z m102 57 l23 -24 19
24 c13 17 29 25 51 25 l31 0 -36 -37 -37 -38 35 -40 c18 -22 34 -43 34 -47 0
-18 -37 -6 -65 22 l-31 30 -29 -30 c-26 -27 -75 -42 -75 -22 0 4 16 23 35 42
19 19 35 37 35 42 0 4 -14 23 -31 43 l-31 35 24 0 c14 0 35 -11 48 -25z m-557
-272 c-84 -2 -222 -2 -306 0 -83 1 -15 3 153 3 168 0 236 -2 153 -3z"/>
<path d="M948 1759 c-83 -13 -155 -70 -194 -154 -13 -27 -24 -64 -24 -82 0
-17 -7 -38 -15 -46 -12 -13 -12 -23 4 -78 17 -61 20 -64 52 -69 l34 -5 3 -62
c3 -61 3 -62 33 -61 22 1 34 9 50 34 39 63 70 63 109 -1 17 -27 28 -35 51 -35
17 0 32 6 35 15 8 20 40 19 48 -1 3 -9 15 -14 28 -12 20 3 24 10 28 63 5 59 5
60 39 65 32 5 35 8 52 69 16 55 16 65 4 78 -8 8 -15 29 -15 46 0 44 -40 125
-80 165 -64 61 -147 86 -242 71z"/>
</g>
</svg>
